{"title":"Hammer of the Gods 2009 DVDRip XviD.FEEL-FREE","uid":5618806,"size":867232299,"categoryP":"video","categoryS":"movies","magnet":"?xt=urn:btih:3adc859ac031e0441fd3b9f571d8018c494a4a98&amp;dn=Hammer+of+the+Gods+2009+DVDRip+XviD.FEEL-FREE&amp;tr=udp%3A%2F%2Ftracker.openbittorrent.com%3A80&amp;tr=udp%3A%2F%2Fopen.demonii.com%3A1337&amp;tr=udp%3A%2F%2Ftracker.coppersurfer.tk%3A6969&amp;tr=udp%3A%2F%2Fexodus.desync.com%3A6969","seeders":1,"leechers":0,"uploader":"neon","files":6,"time":1276178818,"description":"Hammer of the Gods 2009 DVDRip XviD.FEEL-FREE &lt;a href=&quot;\nhttp://www.imdb.com/title/tt1260572/&quot; rel=&quot;nofollow&quot; target=&quot;_NEW&quot;&gt;\nhttp://www.imdb.com/title/tt1260572/&lt;/a&gt;\n\nGenre:Action | Adventure | Drama | Fantasy | Horror | Thriller\nLanguage:English\nIMDb:http://www.imdb.com/title/tt1260572\nEncoder: Tony2\n\nThor along with his friends travels to mysterious island seeking glory and fame. Upon arriving they encounter strange creatures and they start searching the island for answers. Meanwhile Thor keeps seeing visions for a mighty warrior and a big hammer and Freyja tells him that his visions are clues so they start searching for the hammer. &lt;a href=&quot;\nhttp://img88.imageshack.us/img88/5300/gods4.jpg&quot; rel=&quot;nofollow&quot; target=&quot;_NEW&quot;&gt;\nhttp://img88.imageshack.us/img88/5300/gods4.jpg&lt;/a&gt; \n..............................................\nGeneral\nComplete name : Hammer of the Gods 2009 DVDRip XviD.FEEL-FREE\nFormat : AVI\nFormat/Info : Audio Video Interleave\nFile size : 826 MiB\nDuration : 1h 26mn\n..............................................\nVideo\nID : 0\nFormat : MPEG-4 Visual\nCodec ID : DIV3\nCodec ID/Hint : DivX 3 Low\nDuration : 1h 26mn\nBit rate : 1 199 Kbps\nWidth : 704 pixels\nHeight : 304 pixels\nDisplay aspect ratio : 2.35:1\nFrame rate : 23.976 fps\nResolution : 24 bits\nBits/(Pixel*Frame) : 0.234\nStream size : 740 MiB (90%)\n...............................................\nAudio\nID : 1\nFormat : MPEG Audio\nFormat version : Version 1\nFormat profile : Layer 3\nFormat settings, Mode : Joint stereo / MS Stereo\nCodec ID : 55\nCodec ID/Hint : MP3\nDuration : 1h 26mn\nBit rate mode : Constant\nBit rate : 128 Kbps\nChannel(s) : 2 channels\nSampling rate : 44.1 KHz\nResolution : 16 bits\nStream size : 79.0 MiB (10%)\n................................................\nPlot:\nThor along with his friends travels to mysterious island seeking glory and fame. Upon arriving they....\n...................................................\n","torrent":{"xt":"urn:btih:3adc859ac031e0441fd3b9f571d8018c494a4a98","amp;dn":"Hammer+of+the+Gods+2009+DVDRip+XviD.FEEL-FREE","amp;tr":["udp%3A%2F%2Ftracker.openbittorrent.com%3A80","udp%3A%2F%2Fopen.demonii.com%3A1337","udp%3A%2F%2Ftracker.coppersurfer.tk%3A6969","udp%3A%2F%2Fexodus.desync.com%3A6969"],"infoHash":"3adc859ac031e0441fd3b9f571d8018c494a4a98","infoHashBuffer":{"type":"Buffer","data":[58,220,133,154,192,49,224,68,31,211,185,245,113,216,1,140,73,74,74,152]},"announce":[],"urlList":[]}}